<svg xmlns="http://www.w3.org/2000/svg" width="888" height="486" viewBox="0 0 888 486"><rect width="888" height="486" fill="#141414"/><path d="M78 0V486" stroke="#2c2c2c" stroke-dasharray="3 5"/><path d="M156 0V486" stroke="#2c2c2c" stroke-dasharray="3 5"/><path d="M234 0V486" stroke="#2c2c2c" stroke-dasharray="3 5"/><path d="M312 0V486" stroke="#2c2c2c" stroke-dasharray="3 5"/><path d="M390 0V486" stroke="#2c2c2c" stroke-dasharray="3 5"/><path d="M468 0V486" stroke="#2c2c2c" stroke-dasharray="3 5"/><path d="M546 0V486" stroke="#2c2c2c" stroke-dasharray="3 5"/><path d="M624 0V486" stroke="#2c2c2c" stroke-dasharray="3 5"/><path d="M702 0V486" stroke="#2c2c2c" stroke-dasharray="3 5"/><path d="M780 0V486" stroke="#2c2c2c" stroke-dasharray="3 5"/><path d="M858 0V486" stroke="#2c2c2c" stroke-dasharray="3 5"/><path d="M0 78H888" stroke="#2c2c2c" stroke-dasharray="3 5"/><path d="M0 156H888" stroke="#2c2c2c" stroke-dasharray="3 5"/><path d="M0 234H888" stroke="#2c2c2c" stroke-dasharray="3 5"/><path d="M0 312H888" stroke="#2c2c2c" stroke-dasharray="3 5"/><path d="M0 390H888" stroke="#2c2c2c" stroke-dasharray="3 5"/><path d="M0 468H888" stroke="#2c2c2c" stroke-dasharray="3 5"/><path d="M170 243.0L326 -27.2A312 312 0 0 1 326 513.2Z" fill="#ffffff" fill-opacity="0.12"/><circle cx="170" cy="243.0" r="39" fill="none" stroke="#ffffff" stroke-width="2" stroke-dasharray="4 4"/><path d="M326 53V173" stroke="#ffffff" stroke-width="5"/><circle cx="170" cy="243.0" r="12" fill="#ffffff"/><path d="M182 243.0L210 243.0" stroke="#ffffff" stroke-width="3"/><circle cx="396" cy="303.6" r="11" fill="#f4df3b"/><circle cx="335.5" cy="77.5" r="11" fill="none" stroke="#f4df3b" stroke-width="2.5"/><circle cx="125.5" cy="120.8" r="11" fill="none" stroke="#f4df3b" stroke-width="2.5"/><path d="M170 243.0L396 303.6" stroke="#f4df3b" stroke-width="2" stroke-dasharray="6 5"/></svg>